# xmcd
#
# Track frame offsets:
#	150
#	16417
#	37582
#	56928
#	71849
#	90226
#	105022
#	124667
#	142384
#	161296
#	183745
#	197569
#	215242
#	238989
#	253075
#
# Disc length: 3621 seconds
#
# Revision: 0
# Processed by: cddbd v1.5.2PL0 Copyright (c) Steve Scherf et al.
# Submitted via: EasyCDDAExtractor 2011.3.0.0
#
DISCID=d70e230f
DTITLE=Eric frasiak - parlons nous
DYEAR=2011
DGENRE=Chanson
TTITLE0=t etais pas ne
TTITLE1=merci d etre la
TTITLE2=parlons nous
TTITLE3=edvige
TTITLE4=francois beranger
TTITLE5=le tango dela jet set
TTITLE6=ma vie qui court
TTITLE7=tais toi
TTITLE8=le reve de mlk
TTITLE9=bar le duc city blues
TTITLE10=on fais du rock
TTITLE11=les bonimenteurs
TTITLE12=l air bleu
TTITLE13=vingt ans
TTITLE14=je sais tout ca
EXTD=
EXTT0=
EXTT1=
EXTT2=
EXTT3=
EXTT4=
EXTT5=
EXTT6=
EXTT7=
EXTT8=
EXTT9=
EXTT10=
EXTT11=
EXTT12=
EXTT13=
EXTT14=
PLAYORDER=
